<svg width="106" height="60" viewBox="0 0 106 60" fill="none" xmlns="http://www.w3.org/2000/svg">
<circle cx="30" cy="30" r="29" fill="white" stroke="#245506" stroke-width="2"/>
<path d="M38.328 43.52C37.24 42.048 35.976 40.4 34.536 38.576C33.128 36.752 31.672 34.896 30.168 33.008C28.664 31.088 27.208 29.232 25.8 27.44C24.424 25.648 23.192 24.064 22.104 22.688V42.8C22.104 43.12 21.992 43.408 21.768 43.664C21.544 43.888 21.256 44 20.904 44C20.584 44 20.296 43.888 20.04 43.664C19.816 43.408 19.704 43.12 19.704 42.8V19.52C19.704 19.168 19.816 18.88 20.04 18.656C20.296 18.432 20.568 18.32 20.856 18.32C21.496 18.32 21.928 18.48 22.152 18.8C22.952 19.856 23.992 21.216 25.272 22.88C26.552 24.512 27.944 26.304 29.448 28.256C30.984 30.176 32.52 32.128 34.056 34.112C35.624 36.064 37.064 37.904 38.376 39.632V19.52C38.376 19.168 38.488 18.88 38.712 18.656C38.968 18.432 39.256 18.32 39.576 18.32C39.928 18.32 40.216 18.432 40.44 18.656C40.664 18.88 40.776 19.168 40.776 19.52V42.8C40.776 43.12 40.664 43.408 40.44 43.664C40.216 43.888 39.944 44 39.624 44C38.984 44 38.552 43.84 38.328 43.52Z" fill="#245506"/>
<circle cx="76" cy="30" r="29" fill="#245506" stroke="#D4D4D4" stroke-width="2"/>
<path d="M83.96 44C83.512 44 83.192 43.84 83 43.52L75.992 33.68L71.48 37.232V42.8C71.48 43.12 71.368 43.408 71.144 43.664C70.92 43.888 70.632 44 70.28 44C69.96 44 69.672 43.888 69.416 43.664C69.192 43.408 69.08 43.12 69.08 42.8V18.272C69.08 17.92 69.192 17.632 69.416 17.408C69.672 17.184 69.96 17.072 70.28 17.072C70.632 17.072 70.92 17.184 71.144 17.408C71.368 17.632 71.48 17.92 71.48 18.272V34.16L82.616 25.424C82.84 25.264 83.064 25.184 83.288 25.184C83.64 25.184 83.928 25.296 84.152 25.52C84.408 25.712 84.536 25.984 84.536 26.336C84.536 26.784 84.376 27.12 84.056 27.344L77.864 32.192L84.92 42.08C85.08 42.304 85.16 42.544 85.16 42.8C85.16 43.12 85.032 43.408 84.776 43.664C84.552 43.888 84.28 44 83.96 44Z" fill="white"/>
</svg>
