<svg width="60" height="60" viewBox="0 0 60 60" fill="none" xmlns="http://www.w3.org/2000/svg">
<circle cx="30" cy="30" r="29" fill="#D9D9D9" stroke="#245506" stroke-width="2"/>
<path d="M38.328 43.52C37.24 42.048 35.976 40.4 34.536 38.576C33.128 36.752 31.672 34.896 30.168 33.008C28.664 31.088 27.208 29.232 25.8 27.44C24.424 25.648 23.192 24.064 22.104 22.688V42.8C22.104 43.12 21.992 43.408 21.768 43.664C21.544 43.888 21.256 44 20.904 44C20.584 44 20.296 43.888 20.04 43.664C19.816 43.408 19.704 43.12 19.704 42.8V19.52C19.704 19.168 19.816 18.88 20.04 18.656C20.296 18.432 20.568 18.32 20.856 18.32C21.496 18.32 21.928 18.48 22.152 18.8C22.952 19.856 23.992 21.216 25.272 22.88C26.552 24.512 27.944 26.304 29.448 28.256C30.984 30.176 32.52 32.128 34.056 34.112C35.624 36.064 37.064 37.904 38.376 39.632V19.52C38.376 19.168 38.488 18.88 38.712 18.656C38.968 18.432 39.256 18.32 39.576 18.32C39.928 18.32 40.216 18.432 40.44 18.656C40.664 18.88 40.776 19.168 40.776 19.52V42.8C40.776 43.12 40.664 43.408 40.44 43.664C40.216 43.888 39.944 44 39.624 44C38.984 44 38.552 43.84 38.328 43.52Z" fill="#245506"/>
</svg>
